{"accessors":{"accessor_103":{"bufferView":"bufferView_449","byteOffset":7504,"byteStride":0,"componentType":5123,"count":210,"type":"SCALAR"},"accessor_105":{"bufferView":"bufferView_450","byteOffset":42224,"byteStride":12,"componentType":5126,"count":74,"max":[0.44449999928474426,0.5183047652244568,0.5538749098777771],"min":[0,0.3937000036239624,0.4574565291404724],"type":"VEC3"},"accessor_107":{"bufferView":"bufferView_450","byteOffset":43112,"byteStride":12,"componentType":5126,"count":74,"max":[0,0.9972509741783142,0.9985359907150269],"min":[0,-0.9972509741783142,-0.9985359907150269],"type":"VEC3"},"accessor_123":{"bufferView":"bufferView_449","byteOffset":11812,"byteStride":0,"componentType":5123,"count":6,"type":"SCALAR"},"accessor_125":{"bufferView":"bufferView_450","byteOffset":65432,"byteStride":12,"componentType":5126,"count":6,"max":[0.41909998655319214,0.058839861303567886,0.0002558288106229156],"min":[0.41909998655319214,0.05024678632616997,0],"type":"VEC3"},"accessor_127":{"bufferView":"bufferView_450","byteOffset":65504,"byteStride":12,"componentType":5126,"count":6,"max":[1,0,0],"min":[-1,0,0],"type":"VEC3"},"accessor_143":{"bufferView":"bufferView_449","byteOffset":11824,"byteStride":0,"componentType":5123,"count":6,"type":"SCALAR"},"accessor_145":{"bufferView":"bufferView_450","byteOffset":65576,"byteStride":12,"componentType":5126,"count":6,"max":[0.41909998655319214,0.01269999984651804,0.0469648540019989],"min":[0.41909998655319214,0.01236705668270588,0.037305232137441635],"type":"VEC3"},"accessor_147":{"bufferView":"bufferView_450","byteOffset":65648,"byteStride":12,"componentType":5126,"count":6,"max":[1,0,0],"min":[-1,0,0],"type":"VEC3"},"accessor_16":{"bufferView":"bufferView_449","byteOffset":7924,"byteStride":0,"componentType":5123,"count":306,"type":"SCALAR"},"accessor_163":{"bufferView":"bufferView_449","byteOffset":11836,"byteStride":0,"componentType":5123,"count":6,"type":"SCALAR"},"accessor_165":{"bufferView":"bufferView_450","byteOffset":65720,"byteStride":12,"componentType":5126,"count":6,"max":[0.44449999928474426,0.027142439037561417,0.4574565291404724],"min":[0.44449999928474426,0.02539999969303608,0.45571407675743103],"type":"VEC3"},"accessor_167":{"bufferView":"bufferView_450","byteOffset":65792,"byteStride":12,"componentType":5126,"count":6,"max":[1,0,0],"min":[-1,0,0],"type":"VEC3"},"accessor_18":{"bufferView":"bufferView_450","byteOffset":44000,"byteStride":12,"componentType":5126,"count":106,"max":[0.44449999928474426,0.46820834279060364,0.547987163066864],"min":[0,0,0.4466564655303955],"type":"VEC3"},"accessor_183":{"bufferView":"bufferView_449","byteOffset":11848,"byteStride":0,"componentType":5123,"count":96,"type":"SCALAR"},"accessor_185":{"bufferView":"bufferView_450","byteOffset":65864,"byteStride":12,"componentType":5126,"count":40,"max":[0.44449999928474426,0.518713653087616,0.591873288154602],"min":[0,0.5124805569648743,0.5538749098777771],"type":"VEC3"},"accessor_187":{"bufferView":"bufferView_450","byteOffset":66344,"byteStride":12,"componentType":5126,"count":40,"max":[0,0.9999989867210388,0.33368200063705444],"min":[0,-0.9999989867210388,-0.33368200063705444],"type":"VEC3"},"accessor_20":{"bufferView":"bufferView_450","byteOffset":45272,"byteStride":12,"componentType":5126,"count":106,"max":[0.0000026000000161729986,0.9628329873085022,0.9997320175170898],"min":[-0.0000026000000161729986,-0.9628329873085022,-0.9997320175170898],"type":"VEC3"},"accessor_203":{"bufferView":"bufferView_449","byteOffset":12040,"byteStride":0,"componentType":5123,"count":6,"type":"SCALAR"},"accessor_205":{"bufferView":"bufferView_450","byteOffset":66824,"byteStride":12,"componentType":5126,"count":6,"max":[0.02539999969303608,0.027142439037561417,0.4574565291404724],"min":[0.02539999969303608,0.02539999969303608,0.45571407675743103],"type":"VEC3"},"accessor_207":{"bufferView":"bufferView_450","byteOffset":66896,"byteStride":12,"componentType":5126,"count":6,"max":[1,0,0],"min":[-1,0,0],"type":"VEC3"},"accessor_223":{"bufferView":"bufferView_449","byteOffset":12052,"byteStride":0,"componentType":5123,"count":12,"type":"SCALAR"},"accessor_225":{"bufferView":"bufferView_450","byteOffset":66968,"byteStride":12,"componentType":5126,"count":8,"max":[0.44449999928474426,0.514578640460968,1.0162564516067505],"min":[0,0.4880940020084381,1.0162564516067505],"type":"VEC3"},"accessor_227":{"bufferView":"bufferView_450","byteOffset":67064,"byteStride":12,"componentType":5126,"count":8,"max":[0,0,1],"min":[0,0,-1],"type":"VEC3"},"accessor_243":{"bufferView":"bufferView_449","byteOffset":24,"byteStride":0,"componentType":5123,"count":12,"type":"SCALAR"},"accessor_245":{"bufferView":"bufferView_450","byteOffset":224,"byteStride":12,"componentType":5126,"count":8,"max":[0.02539999969303608,0.3937000036239624,0.4701565206050873],"min":[0,0.3937000036239624,0.4574565291404724],"type":"VEC3"},"accessor_247":{"bufferView":"bufferView_450","byteOffset":320,"byteStride":12,"componentType":5126,"count":8,"max":[0,1,0],"min":[0,-1,0],"type":"VEC3"},"accessor_257":{"bufferView":"bufferView_449","byteOffset":48,"byteStride":0,"componentType":5123,"count":2,"type":"SCALAR"},"accessor_259":{"bufferView":"bufferView_450","byteOffset":416,"byteStride":12,"componentType":5126,"count":2,"max":[0.41909998655319214,0.4500270187854767,0.4701565206050873],"min":[0.41909998655319214,0.3937000036239624,0.4701565206050873],"type":"VEC3"},"accessor_275":{"bufferView":"bufferView_449","byteOffset":6100,"byteStride":0,"componentType":5123,"count":21,"type":"SCALAR"},"accessor_277":{"bufferView":"bufferView_450","byteOffset":27896,"byteStride":12,"componentType":5126,"count":9,"max":[0.44449999928474426,0.5206999778747559,0.0002558288106229156],"min":[0,0.05024678632616997,0.0002558288106229156],"type":"VEC3"},"accessor_279":{"bufferView":"bufferView_450","byteOffset":28004,"byteStride":12,"componentType":5126,"count":9,"max":[0,0,-0.9965559840202332],"min":[0,-0.08292010426521301,-1],"type":"VEC3"},"accessor_300":{"bufferView":"bufferView_449","byteOffset":6142,"byteStride":0,"componentType":5123,"count":21,"type":"SCALAR"},"accessor_302":{"bufferView":"bufferView_450","byteOffset":28112,"byteStride":12,"componentType":5126,"count":9,"max":[0.44449999928474426,0.5206999778747559,0.0002558288106229156],"min":[0,0.05024678632616997,0.0002558288106229156],"type":"VEC3"},"accessor_304":{"bufferView":"bufferView_450","byteOffset":28220,"byteStride":12,"componentType":5126,"count":9,"max":[0,0.08292010426521301,1],"min":[0,0,0.9965559840202332],"type":"VEC3"},"accessor_306":{"bufferView":"bufferView_450","byteOffset":28328,"byteStride":8,"componentType":5126,"count":9,"max":[0,0.8021780252456665],"min":[-1.75,-1.0499999523162842],"type":"VEC2"},"accessor_322":{"bufferView":"bufferView_449","byteOffset":8536,"byteStride":0,"componentType":5123,"count":819,"type":"SCALAR"},"accessor_324":{"bufferView":"bufferView_450","byteOffset":46544,"byteStride":12,"componentType":5126,"count":287,"max":[0.44449999928474426,0.5206999778747559,0.4701565206050873],"min":[0,0.01269999984651804,0.0002558288106229156],"type":"VEC3"},"accessor_326":{"bufferView":"bufferView_450","byteOffset":49988,"byteStride":12,"componentType":5126,"count":287,"max":[1,1,0.9991059899330139],"min":[-1,-1,-0.9807850122451782],"type":"VEC3"},"accessor_347":{"bufferView":"bufferView_449","byteOffset":10174,"byteStride":0,"componentType":5123,"count":819,"type":"SCALAR"},"accessor_349":{"bufferView":"bufferView_450","byteOffset":53432,"byteStride":12,"componentType":5126,"count":375,"max":[0.44449999928474426,0.5206999778747559,0.4701565206050873],"min":[0,0.01269999984651804,0.0002558288106229156],"type":"VEC3"},"accessor_351":{"bufferView":"bufferView_450","byteOffset":57932,"byteStride":12,"componentType":5126,"count":375,"max":[1,1,0.9807850122451782],"min":[-1,-1,-0.9991059899330139],"type":"VEC3"},"accessor_353":{"bufferView":"bufferView_450","byteOffset":62432,"byteStride":8,"componentType":5126,"count":375,"max":[1.75,1.231227993965149],"min":[-2.049999952316284,-0.8510099649429321],"type":"VEC2"},"accessor_36":{"bufferView":"bufferView_449","byteOffset":52,"byteStride":0,"componentType":5123,"count":282,"type":"SCALAR"},"accessor_369":{"bufferView":"bufferView_449","byteOffset":12076,"byteStride":0,"componentType":5123,"count":168,"type":"SCALAR"},"accessor_371":{"bufferView":"bufferView_450","byteOffset":67160,"byteStride":12,"componentType":5126,"count":58,"max":[0.41909998655319214,0.4952999949455261,0.4701565206050873],"min":[0.41909998655319214,0.01269999984651804,0.0002558288106229156],"type":"VEC3"},"accessor_373":{"bufferView":"bufferView_450","byteOffset":67856,"byteStride":12,"componentType":5126,"count":58,"max":[1,0,0],"min":[1,0,0],"type":"VEC3"},"accessor_38":{"bufferView":"bufferView_450","byteOffset":440,"byteStride":12,"componentType":5126,"count":98,"max":[0.44449999928474426,0.4880940020084381,1.0162564516067505],"min":[0,0.454025000333786,0.559950590133667],"type":"VEC3"},"accessor_394":{"bufferView":"bufferView_449","byteOffset":12412,"byteStride":0,"componentType":5123,"count":168,"type":"SCALAR"},"accessor_396":{"bufferView":"bufferView_450","byteOffset":68552,"byteStride":12,"componentType":5126,"count":58,"max":[0.41909998655319214,0.4952999949455261,0.4701565206050873],"min":[0.41909998655319214,0.01269999984651804,0.0002558288106229156],"type":"VEC3"},"accessor_398":{"bufferView":"bufferView_450","byteOffset":69248,"byteStride":12,"componentType":5126,"count":58,"max":[-1,0,0],"min":[-1,0,0],"type":"VEC3"},"accessor_40":{"bufferView":"bufferView_450","byteOffset":1616,"byteStride":12,"componentType":5126,"count":98,"max":[1.0000000116860974e-7,1,0.8029220104217529],"min":[-1.0000000116860974e-7,-1,-0.8029220104217529],"type":"VEC3"},"accessor_400":{"bufferView":"bufferView_450","byteOffset":69944,"byteStride":8,"componentType":5126,"count":58,"max":[-0.04999999701976776,0.9989928007125854],"min":[-1.9499999284744263,-0.8510099649429321],"type":"VEC2"},"accessor_416":{"bufferView":"bufferView_449","byteOffset":0,"byteStride":0,"componentType":5123,"count":6,"type":"SCALAR"},"accessor_418":{"bufferView":"bufferView_450","byteOffset":0,"byteStride":12,"componentType":5126,"count":4,"max":[0.41909998655319214,0.3937000036239624,0.4574565291404724],"min":[0.02539999969303608,0.058839861303567886,0.4574565291404724],"type":"VEC3"},"accessor_420":{"bufferView":"bufferView_450","byteOffset":48,"byteStride":12,"componentType":5126,"count":4,"max":[0,0,-1],"min":[0,0,-1],"type":"VEC3"},"accessor_441":{"bufferView":"bufferView_449","byteOffset":12,"byteStride":0,"componentType":5123,"count":6,"type":"SCALAR"},"accessor_443":{"bufferView":"bufferView_450","byteOffset":96,"byteStride":12,"componentType":5126,"count":4,"max":[0.41909998655319214,0.3937000036239624,0.4574565291404724],"min":[0.02539999969303608,0.058839861303567886,0.4574565291404724],"type":"VEC3"},"accessor_445":{"bufferView":"bufferView_450","byteOffset":144,"byteStride":12,"componentType":5126,"count":4,"max":[0,0,1],"min":[0,0,1],"type":"VEC3"},"accessor_447":{"bufferView":"bufferView_450","byteOffset":192,"byteStride":8,"componentType":5126,"count":4,"max":[-0.10000000149011612,0.7683470249176025],"min":[-1.649999976158142,-0.5499999523162842],"type":"VEC2"},"accessor_56":{"bufferView":"bufferView_449","byteOffset":616,"byteStride":0,"componentType":5123,"count":2742,"type":"SCALAR"},"accessor_58":{"bufferView":"bufferView_450","byteOffset":2792,"byteStride":12,"componentType":5126,"count":1046,"max":[0.44449999928474426,0.518713653087616,1.0162564516067505],"min":[0,0,0.4399940073490143],"type":"VEC3"},"accessor_60":{"bufferView":"bufferView_450","byteOffset":15344,"byteStride":12,"componentType":5126,"count":1046,"max":[1,1,1],"min":[-1,-1,-1],"type":"VEC3"},"accessor_81":{"bufferView":"bufferView_449","byteOffset":6184,"byteStride":0,"componentType":5123,"count":660,"type":"SCALAR"},"accessor_83":{"bufferView":"bufferView_450","byteOffset":28400,"byteStride":12,"componentType":5126,"count":432,"max":[0.44449999928474426,0.5206999778747559,0.4574565291404724],"min":[0,0.02539999969303608,0.012955828569829464],"type":"VEC3"},"accessor_85":{"bufferView":"bufferView_450","byteOffset":33584,"byteStride":12,"componentType":5126,"count":432,"max":[0,0.9988210201263428,1],"min":[0,-0.9988210201263428,-1],"type":"VEC3"},"accessor_87":{"bufferView":"bufferView_450","byteOffset":38768,"byteStride":8,"componentType":5126,"count":432,"max":[1.75,1.2267229557037354],"min":[-1.75,-1.0499999523162842],"type":"VEC2"}},"animations":{},"asset":{"generator":"collada2gltf@","premultipliedAlpha":true,"profile":"WebGL 1.0.2","version":0.800000011920929},"bufferViews":{"bufferView_449":{"buffer":"model","byteLength":12748,"byteOffset":0,"target":34963},"bufferView_450":{"buffer":"model","byteLength":70408,"byteOffset":12748,"target":34962}},"buffers":{"model":{"byteLength":83156,"type":"arraybuffer","uri":"data:application/octet-stream;base64,"}},"images":{"ID31":{"uri":"data:image/jpeg;base64,"}},"materials":{"ID120":{"instanceTechnique":{"technique":"technique0","values":{}},"name":"edge_color255255255255"},"ID30":{"instanceTechnique":{"technique":"technique1","values":{"diffuse":"texture_ID31"}},"name":"__Metal_Corrogated_Shiny_1"},"ID7":{"instanceTechnique":{"technique":"technique2","values":{"diffuse":[1,1,1,1]}},"name":"Color_000"}},"meshes":{"ID104-split-0":{"name":"ID104-split-0","primitives":[{"attributes":{"NORMAL":"accessor_420","POSITION":"accessor_418"},"indices":"accessor_416","material":"ID7","primitive":4}]},"ID104-split-1":{"name":"ID104-split-1","primitives":[{"attributes":{"NORMAL":"accessor_445","POSITION":"accessor_443","TEXCOORD_0":"accessor_447"},"indices":"accessor_441","material":"ID30","primitive":4}]},"ID112":{"name":"ID112","primitives":[{"attributes":{"NORMAL":"accessor_247","POSITION":"accessor_245"},"indices":"accessor_243","material":"ID7","primitive":4}]},"ID118":{"name":"ID118","primitives":[{"attributes":{"POSITION":"accessor_259"},"indices":"accessor_257","material":"ID120","primitive":1}]},"ID13":{"name":"ID13","primitives":[{"attributes":{"NORMAL":"accessor_40","POSITION":"accessor_38"},"indices":"accessor_36","material":"ID7","primitive":4}]},"ID19":{"name":"ID19","primitives":[{"attributes":{"NORMAL":"accessor_60","POSITION":"accessor_58"},"indices":"accessor_56","material":"ID7","primitive":4}]},"ID25-split-0":{"name":"ID25-split-0","primitives":[{"attributes":{"NORMAL":"accessor_279","POSITION":"accessor_277"},"indices":"accessor_275","material":"ID7","primitive":4}]},"ID25-split-1":{"name":"ID25-split-1","primitives":[{"attributes":{"NORMAL":"accessor_304","POSITION":"accessor_302","TEXCOORD_0":"accessor_306"},"indices":"accessor_300","material":"ID30","primitive":4}]},"ID38":{"name":"ID38","primitives":[{"attributes":{"NORMAL":"accessor_85","POSITION":"accessor_83","TEXCOORD_0":"accessor_87"},"indices":"accessor_81","material":"ID30","primitive":4}]},"ID46":{"name":"ID46","primitives":[{"attributes":{"NORMAL":"accessor_107","POSITION":"accessor_105"},"indices":"accessor_103","material":"ID7","primitive":4}]},"ID5":{"name":"ID5","primitives":[{"attributes":{"NORMAL":"accessor_20","POSITION":"accessor_18"},"indices":"accessor_16","material":"ID7","primitive":4}]},"ID52-split-0":{"name":"ID52-split-0","primitives":[{"attributes":{"NORMAL":"accessor_326","POSITION":"accessor_324"},"indices":"accessor_322","material":"ID7","primitive":4}]},"ID52-split-1":{"name":"ID52-split-1","primitives":[{"attributes":{"NORMAL":"accessor_351","POSITION":"accessor_349","TEXCOORD_0":"accessor_353"},"indices":"accessor_347","material":"ID30","primitive":4}]},"ID60":{"name":"ID60","primitives":[{"attributes":{"NORMAL":"accessor_127","POSITION":"accessor_125"},"indices":"accessor_123","material":"ID7","primitive":4}]},"ID66":{"name":"ID66","primitives":[{"attributes":{"NORMAL":"accessor_147","POSITION":"accessor_145"},"indices":"accessor_143","material":"ID7","primitive":4}]},"ID72":{"name":"ID72","primitives":[{"attributes":{"NORMAL":"accessor_167","POSITION":"accessor_165"},"indices":"accessor_163","material":"ID7","primitive":4}]},"ID78":{"name":"ID78","primitives":[{"attributes":{"NORMAL":"accessor_187","POSITION":"accessor_185"},"indices":"accessor_183","material":"ID7","primitive":4}]},"ID84":{"name":"ID84","primitives":[{"attributes":{"NORMAL":"accessor_207","POSITION":"accessor_205"},"indices":"accessor_203","material":"ID7","primitive":4}]},"ID90":{"name":"ID90","primitives":[{"attributes":{"NORMAL":"accessor_227","POSITION":"accessor_225"},"indices":"accessor_223","material":"ID7","primitive":4}]},"ID96-split-0":{"name":"ID96-split-0","primitives":[{"attributes":{"NORMAL":"accessor_373","POSITION":"accessor_371"},"indices":"accessor_369","material":"ID7","primitive":4}]},"ID96-split-1":{"name":"ID96-split-1","primitives":[{"attributes":{"NORMAL":"accessor_398","POSITION":"accessor_396","TEXCOORD_0":"accessor_400"},"indices":"accessor_394","material":"ID30","primitive":4}]}},"nodes":{"ID2":{"children":["ID3"],"matrix":[1,0,0,0,0,1,0,0,0,0,1,0,-2.329941749572754,-0.7135646939277649,0,1],"name":"instance_0"},"ID3":{"children":["ID4"],"matrix":[1,0,0,0,0,1,0,0,0,0,1,0,0,0,0,1],"name":"scan_design_Anika_chair"},"ID4":{"children":[],"matrix":[1,0,0,0,0,1,0,0,0,0,1,0,2.8230068683624268,0.9640340805053711,0,1],"meshes":["ID5","ID13","ID90","ID112","ID118","ID25-split-0","ID25-split-1","ID52-split-0","ID52-split-1","ID96-split-0","ID96-split-1","ID104-split-0","ID19","ID104-split-1","ID38","ID46","ID60","ID66","ID72","ID78","ID84"],"name":"group_0"},"node_0":{"children":["ID2"],"matrix":[1,0,0,0,0,1,0,0,0,0,1,0,0,0,0,1],"name":"SketchUp"},"node_4":{"children":["node_0"],"matrix":[1,0,0,0,0,0,-1,0,0,1,0,0,0,0,0,1],"name":"Y_UP_Transform"}},"programs":{"program_0":{"attributes":["a_position"],"fragmentShader":"model0FS","vertexShader":"model0VS"},"program_1":{"attributes":["a_normal","a_position","a_texcoord0"],"fragmentShader":"model1FS","vertexShader":"model1VS"},"program_2":{"attributes":["a_normal","a_position"],"fragmentShader":"model2FS","vertexShader":"model2VS"}},"samplers":{"sampler_0":{"magFilter":9729,"minFilter":9729,"wrapS":10497,"wrapT":10497}},"scene":"defaultScene","scenes":{"defaultScene":{"nodes":["node_4"]}},"shaders":{"model0FS":{"type":35632,"uri":"data:text/plain;base64,"},"model0VS":{"type":35633,"uri":"data:text/plain;base64,"},"model1FS":{"type":35632,"uri":"data:text/plain;base64,"},"model1VS":{"type":35633,"uri":"data:text/plain;base64,"},"model2FS":{"type":35632,"uri":"data:text/plain;base64,"},"model2VS":{"type":35633,"uri":"data:text/plain;base64,"}},"skins":{},"techniques":{"technique0":{"parameters":{"modelViewMatrix":{"semantic":"MODELVIEW","type":35676},"position":{"semantic":"POSITION","type":35665},"projectionMatrix":{"semantic":"PROJECTION","type":35676}},"pass":"defaultPass","passes":{"defaultPass":{"details":{"commonProfile":{"extras":{"doubleSided":false},"lightingModel":"Constant","parameters":["modelViewMatrix","projectionMatrix"]},"type":"COLLADA-1.4.1/commonProfile"},"instanceProgram":{"attributes":{"a_position":"position"},"program":"program_0","uniforms":{"u_modelViewMatrix":"modelViewMatrix","u_projectionMatrix":"projectionMatrix"}},"states":{"enable":[2884,2929]}}}},"technique1":{"parameters":{"diffuse":{"type":35678},"modelViewMatrix":{"semantic":"MODELVIEW","type":35676},"normal":{"semantic":"NORMAL","type":35665},"normalMatrix":{"semantic":"MODELVIEWINVERSETRANSPOSE","type":35675},"position":{"semantic":"POSITION","type":35665},"projectionMatrix":{"semantic":"PROJECTION","type":35676},"texcoord0":{"semantic":"TEXCOORD_0","type":35664}},"pass":"defaultPass","passes":{"defaultPass":{"details":{"commonProfile":{"extras":{"doubleSided":false},"lightingModel":"Lambert","parameters":["diffuse","modelViewMatrix","normalMatrix","projectionMatrix"],"texcoordBindings":{"diffuse":"TEXCOORD_0"}},"type":"COLLADA-1.4.1/commonProfile"},"instanceProgram":{"attributes":{"a_normal":"normal","a_position":"position","a_texcoord0":"texcoord0"},"program":"program_1","uniforms":{"u_diffuse":"diffuse","u_modelViewMatrix":"modelViewMatrix","u_normalMatrix":"normalMatrix","u_projectionMatrix":"projectionMatrix"}},"states":{"enable":[2884,2929]}}}},"technique2":{"parameters":{"diffuse":{"type":35666},"modelViewMatrix":{"semantic":"MODELVIEW","type":35676},"normal":{"semantic":"NORMAL","type":35665},"normalMatrix":{"semantic":"MODELVIEWINVERSETRANSPOSE","type":35675},"position":{"semantic":"POSITION","type":35665},"projectionMatrix":{"semantic":"PROJECTION","type":35676}},"pass":"defaultPass","passes":{"defaultPass":{"details":{"commonProfile":{"extras":{"doubleSided":false},"lightingModel":"Lambert","parameters":["diffuse","modelViewMatrix","normalMatrix","projectionMatrix"]},"type":"COLLADA-1.4.1/commonProfile"},"instanceProgram":{"attributes":{"a_normal":"normal","a_position":"position"},"program":"program_2","uniforms":{"u_diffuse":"diffuse","u_modelViewMatrix":"modelViewMatrix","u_normalMatrix":"normalMatrix","u_projectionMatrix":"projectionMatrix"}},"states":{"enable":[2884,2929]}}}}},"textures":{"texture_ID31":{"format":6408,"internalFormat":6408,"sampler":"sampler_0","source":"ID31","target":3553,"type":5121}}}