{"accessors":{"accessor_21":{"bufferView":"bufferView_29","byteOffset":0,"byteStride":0,"componentType":5123,"count":12636,"type":"SCALAR"},"accessor_23":{"bufferView":"bufferView_30","byteOffset":0,"byteStride":12,"componentType":5126,"count":2399,"max":[0.9617989659309387,1.639699935913086,0.539251983165741],"min":[-0.6929849982261658,0.09929369390010834,-0.6132819652557373],"type":"VEC3"},"accessor_25":{"bufferView":"bufferView_30","byteOffset":28788,"byteStride":12,"componentType":5126,"count":2399,"max":[0.9995989799499512,0.999580979347229,0.998435974121],"min":[-0.9990839958190918,-1,-0.9998319745063782],"type":"VEC3"},"accessor_27":{"bufferView":"bufferView_30","byteOffset":57576,"byteStride":8,"componentType":5126,"count":2399,"max":[0.9833459854125977,0.9800369739532471],"min":[0.026409000158309937,0.01996302604675293],"type":"VEC2"}},"animations":{},"asset":{"generator":"collada2gltf@","premultipliedAlpha":true,"profile":"WebGL 1.0.2","version":0.800000011920929},"bufferViews":{"bufferView_29":{"buffer":"model","byteLength":25272,"byteOffset":0,"target":34963},"bufferView_30":{"buffer":"model","byteLength":76768,"byteOffset":25272,"target":34962}},"buffers":{"model":{"byteLength":102040,"type":"arraybuffer","uri":"data:application/octet-stream;base64,"}},"cameras":{"camera_0":{"perspective":{"aspect_ratio":1.5,"yfov":37.84919738769531,"zfar":99.99999776482582,"znear":0.009999999776482582},"type":"perspective"}},"images":{"file2":{"uri":"data:image/jpeg;base64,"}},"lights":{"directionalLightShape1-lib":{"directional":{"color":[1,1,1]},"type":"directional"}},"materials":{"blinn3-fx":{"instanceTechnique":{"technique":"technique0","values":{"ambient":[0,0,0,1],"diffuse":"texture_file2","emission":[0,0,0,1],"shininess":38.400001525878906,"specular":[0,0,0,1]}},"name":"blinn3"}},"meshes":{"LOD3spShape-lib":{"name":"LOD3spShape","primitives":[{"attributes":{"NORMAL":"accessor_25","POSITION":"accessor_23","TEXCOORD_0":"accessor_27"},"indices":"accessor_21","material":"blinn3-fx","primitive":4}]}},"nodes":{"LOD3sp":{"children":[],"matrix":[1,0,0,0,0,1,0,0,0,0,1,0,0,0,0,1],"meshes":["LOD3spShape-lib"],"name":"LOD3sp"},"camera1":{"camera":"camera_0","children":[],"matrix":[-0.7289686799049377,0,-0.6845470666885376,0,-0.42520490288734436,0.7836934328079224,0.4527972936630249,0,0.5364750623703003,0.6211478114128113,-0.571287989616394,0,4.001130104064941,4.6326398849487305,-4.310780048370361,1],"name":"camera1"},"directionalLight1":{"children":[],"light":"directionalLightShape1-lib","matrix":[-0.9546916484832764,0.2181433141231537,-0.2024286538362503,0,0.014671952463686466,0.7138853073120117,0.7001089453697205,0,0.2972349226474762,0.6654181480407715,-0.6847409009933472,0,1.4865400791168213,1.8367201089859009,-2.92179012298584,1],"name":"directionalLight1"}},"programs":{"program_0":{"attributes":["a_normal","a_position","a_texcoord0"],"fragmentShader":"model0FS","vertexShader":"model0VS"}},"samplers":{"sampler_0":{"magFilter":9729,"minFilter":9987,"wrapS":10497,"wrapT":10497}},"scene":"defaultScene","scenes":{"defaultScene":{"nodes":["LOD3sp","camera1","directionalLight1"]}},"shaders":{"model0FS":{"type":35632,"uri":"data:text/plain;base64,"},"model0VS":{"type":35633,"uri":"data:text/plain;base64,"}},"skins":{},"techniques":{"technique0":{"parameters":{"ambient":{"type":35666},"diffuse":{"type":35678},"emission":{"type":35666},"light0Color":{"type":35665,"value":[1,1,1]},"light0Transform":{"semantic":"MODELVIEW","source":"directionalLight1","type":35676},"modelViewMatrix":{"semantic":"MODELVIEW","type":35676},"normal":{"semantic":"NORMAL","type":35665},"normalMatrix":{"semantic":"MODELVIEWINVERSETRANSPOSE","type":35675},"position":{"semantic":"POSITION","type":35665},"projectionMatrix":{"semantic":"PROJECTION","type":35676},"shininess":{"type":5126},"specular":{"type":35666},"texcoord0":{"semantic":"TEXCOORD_0","type":35664}},"pass":"defaultPass","passes":{"defaultPass":{"details":{"commonProfile":{"extras":{"doubleSided":false},"lightingModel":"Blinn","parameters":["ambient","diffuse","emission","light0Color","light0Transform","modelViewMatrix","normalMatrix","projectionMatrix","shininess","specular"],"texcoordBindings":{"diffuse":"TEXCOORD_0"}},"type":"COLLADA-1.4.1/commonProfile"},"instanceProgram":{"attributes":{"a_normal":"normal","a_position":"position","a_texcoord0":"texcoord0"},"program":"program_0","uniforms":{"u_ambient":"ambient","u_diffuse":"diffuse","u_emission":"emission","u_light0Color":"light0Color","u_light0Transform":"light0Transform","u_modelViewMatrix":"modelViewMatrix","u_normalMatrix":"normalMatrix","u_projectionMatrix":"projectionMatrix","u_shininess":"shininess","u_specular":"specular"}},"states":{"enable":[2884,2929]}}}}},"textures":{"texture_file2":{"format":6408,"internalFormat":6408,"sampler":"sampler_0","source":"file2","target":3553,"type":5121}}}