{"accessors":{"accessor_16":{"bufferView":"bufferView_42","byteOffset":72,"byteStride":0,"componentType":5123,"count":1584,"type":"SCALAR"},"accessor_18":{"bufferView":"bufferView_43","byteOffset":576,"byteStride":12,"componentType":5126,"count":266,"max":[0.6491528749465942,1.0073283910751343,1.101951003074646],"min":[-0.7716494798660278,-0.41347137093544006,-0.7308824062347412],"type":"VEC3"},"accessor_20":{"bufferView":"bufferView_43","byteOffset":3768,"byteStride":12,"componentType":5126,"count":266,"max":[1,1,1],"min":[-1,-1,-1],"type":"VEC3"},"accessor_36":{"bufferView":"bufferView_42","byteOffset":0,"byteStride":0,"componentType":5123,"count":36,"type":"SCALAR"},"accessor_38":{"bufferView":"bufferView_43","byteOffset":0,"byteStride":12,"componentType":5126,"count":24,"max":[2.969158411026001,2.337104797363,1.2389001846313477],"min":[0.7755280137062073,-1.9679564237594604,0],"type":"VEC3"},"accessor_40":{"bufferView":"bufferView_43","byteOffset":288,"byteStride":12,"componentType":5126,"count":24,"max":[0.9751499891281128,1,1],"min":[-0.9922239780426025,-1,-1],"type":"VEC3"}},"animations":{},"asset":{"generator":"collada2gltf@","premultipliedAlpha":true,"profile":"WebGL 1.0.2","version":0.800000011920929},"bufferViews":{"bufferView_42":{"buffer":"model","byteLength":3240,"byteOffset":0,"target":34963},"bufferView_43":{"buffer":"model","byteLength":6960,"byteOffset":3240,"target":34962}},"buffers":{"model":{"byteLength":10200,"type":"arraybuffer","uri":"data:application/octet-stream;base64,"}},"materials":{"ID12":{"instanceTechnique":{"technique":"technique0","values":{"diffuse":[0.11764699965715408,0.800000011920929,0,1]}},"name":"material_2"},"ID4":{"instanceTechnique":{"technique":"technique0","values":{"diffuse":[0.800000011920929,0.09411760419607162,0.16862799227237701,1]}},"name":"material_1"}},"meshes":{"ID10":{"name":"ID10","primitives":[{"attributes":{"NORMAL":"accessor_40","POSITION":"accessor_38"},"indices":"accessor_36","material":"ID12","primitive":4}]},"ID2":{"name":"ID2","primitives":[{"attributes":{"NORMAL":"accessor_20","POSITION":"accessor_18"},"indices":"accessor_16","material":"ID4","primitive":4}]}},"nodes":{"node_0":{"children":[],"matrix":[1,0,0,0,0,1,0,0,0,0,1,0,0,0,0,1],"meshes":["ID2","ID10"],"name":"SketchUp"},"node_1":{"children":["node_0"],"matrix":[1,0,0,0,0,0,-1,0,0,1,0,0,0,0,0,1],"name":"Y_UP_Transform"}},"programs":{"program_0":{"attributes":["a_normal","a_position"],"fragmentShader":"model0FS","vertexShader":"model0VS"}},"scene":"defaultScene","scenes":{"defaultScene":{"nodes":["node_1"]}},"shaders":{"model0FS":{"type":35632,"uri":"data:text/plain;base64,"},"model0VS":{"type":35633,"uri":"data:text/plain;base64,"}},"skins":{},"techniques":{"technique0":{"parameters":{"diffuse":{"type":35666},"modelViewMatrix":{"semantic":"MODELVIEW","type":35676},"normal":{"semantic":"NORMAL","type":35665},"normalMatrix":{"semantic":"MODELVIEWINVERSETRANSPOSE","type":35675},"position":{"semantic":"POSITION","type":35665},"projectionMatrix":{"semantic":"PROJECTION","type":35676}},"pass":"defaultPass","passes":{"defaultPass":{"details":{"commonProfile":{"extras":{"doubleSided":false},"lightingModel":"Lambert","parameters":["diffuse","modelViewMatrix","normalMatrix","projectionMatrix"]},"type":"COLLADA-1.4.1/commonProfile"},"instanceProgram":{"attributes":{"a_normal":"normal","a_position":"position"},"program":"program_0","uniforms":{"u_diffuse":"diffuse","u_modelViewMatrix":"modelViewMatrix","u_normalMatrix":"normalMatrix","u_projectionMatrix":"projectionMatrix"}},"states":{"enable":[2884,2929]}}}}}}